<?xml version="1.0" encoding="utf-8"?>
<svg xmlns="http://www.w3.org/2000/svg" viewBox="0 0 50 50" fill="#f86755"><path d="M 24.96875 1.96875 C 18.17279 1.96875 12.052876 4.9382251 7.8476562 9.6347656 A 2.0002 2.0002 0 1 0 10.826172 12.302734 C 14.306952 8.4152753 19.33471 5.96875 24.96875 5.96875 C 35.485874 5.96875 43.96875 14.451626 43.96875 24.96875 C 43.96875 35.485874 35.485874 43.96875 24.96875 43.96875 C 19.335804 43.96875 14.308056 41.522447 10.826172 37.634766 A 2.0002 2.0002 0 1 0 7.8476562 40.302734 C 12.053772 44.999053 18.173696 47.96875 24.96875 47.96875 C 37.647626 47.96875 47.96875 37.647626 47.96875 24.96875 C 47.96875 12.289874 37.647626 1.96875 24.96875 1.96875 z M 10.992188 15.949219 A 2.0002 2.0002 0 0 0 9.6171875 16.554688 L 2.7949219 23.376953 A 2.0002 2.0002 0 0 0 2.8027344 26.568359 L 9.6171875 33.382812 A 2.0002 2.0002 0 1 0 12.445312 30.554688 L 8.859375 26.96875 L 27.03125 26.96875 A 2.0002 2.0002 0 1 0 27.03125 22.96875 L 8.859375 22.96875 L 12.445312 19.382812 A 2.0002 2.0002 0 0 0 10.992188 15.949219 z" fill="#f86755"/></svg>
